# xmcd
#
# Track frame offsets:
#  150
#  23975
#  42707
#  65741
#  83476
#  106579
#  122065
#  143009
#  164121
#  184963
#
# Disc length: 2710 seconds
#
# Revision: 0
# Processed by: cddbd v1.5.1PL2 Copyright (c) Steve Scherf et al.
# Submitted via: Collectorz.com_Music_Collector 6.9
#
DISCID=8b0a940a
DTITLE=Madredeus - Faluas do Trejo
DYEAR=2005
DGENRE=Ambient/Dream Pop
TTITLE0=Lisboa Rainha Do Mar
TTITLE1=Fado das Dúvidas
TTITLE2=Adoro Lisboa
TTITLE3=Névoas da Madrugada
TTITLE4=Faluas Do Tejo
TTITLE5=No Meu Jardim (Sementes À Terra)
TTITLE6=O Cais Distante
TTITLE7=Na Estrada de Santiago
TTITLE8=Lá de Fora
TTITLE9=O Canto da Saudade (Pam)
EXTD=
EXTT0=
EXTT1=
EXTT2=
EXTT3=
EXTT4=
EXTT5=
EXTT6=
EXTT7=
EXTT8=
EXTT9=
PLAYORDER=
